<?xml version="1.0"?>
<svg xmlns="http://www.w3.org/2000/svg" id="Capa_1" enable-background="new 0 0 512 512" height="512px" viewBox="0 0 512 512" width="512px" class=""><g><g><g><path d="m430.644 419.048h-334.295c-5.295 0-9.7-4.073-10.114-9.352l-23.051-293.96h354.647l22.927 292.374c.462 5.897-4.199 10.938-10.114 10.938z" fill="#31a7fb" data-original="#31A7FB" class="" style="fill:#E60000" data-old_color="#31a7fb"/><path d="m440.422 403.904h-295.527c-13.645 0-25.708-9.192-29.34-22.34l-44.02-159.41-8.349-106.422h354.642z" fill="#1c96f9" data-original="#1C96F9" class="" style="fill:#8A0303" data-old_color="#1c96f9"/><path d="m90.346 417.072-45.206-26.518-28.774-3.649c-5.895-.748-9.888-6.379-8.644-12.189l55.461-258.981z" fill="#1785f8" data-original="#1785F8" class="" style="fill:#E60000" data-old_color="#1785f8"/><path d="m63.184 115.735 27.162 301.337-45.205-26.518z" fill="#1576f7" data-original="#1576F7" class="" style="fill:#840202" data-old_color="#1576f7"/><g><path d="m504.123 370.764-68.38-247.584c-1.215-4.398-5.216-7.444-9.779-7.444h-362.78l71.928 260.43c1.215 4.398 5.216 7.444 9.779 7.444h349.453c6.703 0 11.564-6.385 9.779-12.846z" fill="#eaf6ff" data-original="#EAF6FF" class=""/><path d="m494.343 383.614h-37.172c6.706 0 11.565-6.391 9.78-12.854l-68.378-247.581c-1.217-4.393-5.215-7.447-9.78-7.447h37.172c4.565 0 8.562 3.054 9.78 7.447l68.378 247.581c1.785 6.462-3.074 12.854-9.78 12.854z" fill="#d9ecfd" data-original="#D9ECFD" class=""/><path d="m452.009 182.073-16.266-58.894c-1.215-4.398-5.216-7.444-9.779-7.444h-362.78l18.322 66.338z" fill="#fc5a95" data-original="#FC5A95" class="" style="fill:#E60000" data-old_color="#fc5a95"/><path d="m398.573 123.179 16.266 58.894h37.172l-16.266-58.894c-1.217-4.393-5.215-7.447-9.78-7.447h-37.172c4.566.001 8.563 3.054 9.78 7.447z" fill="#fb3a82" data-original="#FB3A82" class="active-path" style="fill:#F80101" data-old_color="#fb3a82"/></g></g><path d="m199.011 264.807-12.916-40.267c-1.347-4.199-5.251-7.047-9.66-7.047h-29.732c-6.876 0-11.76 6.696-9.66 13.244l12.916 40.267c1.347 4.199 5.251 7.047 9.66 7.047h29.732c6.876-.001 11.76-6.697 9.66-13.244z" fill="#31a7fb" data-original="#31A7FB" class="" style="fill:#E60000" data-old_color="#31a7fb"/><g><path d="m511.353 368.767-65.979-238.892c2.241-4.224 3.517-9.036 3.517-14.142 0-16.696-13.583-30.28-30.28-30.28-9.076 0-17.226 4.019-22.78 10.365-5.555-6.346-13.704-10.365-22.78-10.365s-17.226 4.019-22.78 10.365c-5.555-6.346-13.704-10.365-22.78-10.365s-17.226 4.019-22.78 10.365c-5.555-6.346-13.704-10.365-22.78-10.365s-17.226 4.019-22.78 10.365c-5.555-6.346-13.704-10.365-22.78-10.365s-17.226 4.019-22.78 10.365c-5.555-6.346-13.704-10.365-22.78-10.365s-17.226 4.019-22.78 10.365c-5.555-6.346-13.704-10.365-22.78-10.365s-17.226 4.019-22.78 10.365c-5.555-6.346-13.704-10.365-22.78-10.365-14.168 0-26.09 9.783-29.377 22.947l-5.555.002c-4.047-.864-8.037 1.714-8.904 5.764l-39.918 186.38c-.868 4.05 1.713 8.037 5.763 8.904.529.113 1.057.168 1.578.168 3.461 0 6.572-2.411 7.326-5.932l18.35-85.686-10.776 164.112-20.867-2.647c-1.003-.127-1.575-.74-1.826-1.095-.251-.354-.641-1.095-.429-2.084l8.031-37.501c.868-4.05-1.713-8.037-5.763-8.904-4.05-.869-8.037 1.714-8.904 5.764l-8.031 37.501c-1.031 4.816.012 9.884 2.861 13.901 2.849 4.019 7.286 6.679 12.173 7.299l27.249 3.456 43.879 25.739c.025.014.051.024.076.038 2.805 1.87 6.152 2.969 9.722 2.969h334.294c4.904 0 9.626-2.065 12.956-5.666s5.019-8.47 4.636-13.359l-1.287-16.413h47.396c5.557 0 10.674-2.536 14.04-6.957s4.448-10.03 2.969-15.386zm-438.317-245.532h39.946c-2.627 4.636-7.598 7.777-13.296 7.777-4.142 0-7.5 3.357-7.5 7.5s3.358 7.5 7.5 7.5c14.108 0 25.992-9.698 29.338-22.777h29.519c-2.627 4.636-7.598 7.777-13.296 7.777-4.142 0-7.5 3.357-7.5 7.5s3.358 7.5 7.5 7.5c14.108 0 25.992-9.698 29.338-22.777h29.519c-2.627 4.636-7.598 7.777-13.296 7.777-4.142 0-7.5 3.357-7.5 7.5s3.358 7.5 7.5 7.5c14.108 0 25.992-9.698 29.338-22.777h29.519c-2.627 4.636-7.598 7.777-13.296 7.777-4.142 0-7.5 3.357-7.5 7.5s3.358 7.5 7.5 7.5c14.108 0 25.992-9.698 29.338-22.777h29.519c-2.627 4.636-7.598 7.777-13.296 7.777-4.142 0-7.5 3.357-7.5 7.5s3.358 7.5 7.5 7.5c14.108 0 25.992-9.698 29.338-22.777h29.519c-2.627 4.636-7.598 7.777-13.296 7.777-4.142 0-7.5 3.357-7.5 7.5s3.358 7.5 7.5 7.5c14.108 0 25.992-9.698 29.338-22.777h29.519c-2.627 4.636-7.598 7.777-13.296 7.777-4.142 0-7.5 3.357-7.5 7.5s3.358 7.5 7.5 7.5c14.108 0 25.992-9.698 29.338-22.777h23.576c1.186 0 2.234.798 2.55 1.941l.479 1.734c-2.729 2.536-6.372 4.102-10.383 4.102-4.142 0-7.5 3.357-7.5 7.5s3.358 7.5 7.5 7.5c5.298 0 10.28-1.372 14.617-3.772l8.93 32.333h-354.944zm345.574-22.783c6.22 0 11.574 3.741 13.956 9.086-2.058-.836-4.288-1.303-6.602-1.303l-20.66.01c2.625-4.645 7.601-7.793 13.306-7.793zm-45.561 0c5.709 0 10.688 3.152 13.311 7.801l-26.629.012c2.621-4.656 7.605-7.813 13.318-7.813zm-45.56 0c5.717 0 10.704 3.161 13.324 7.822l-26.655.012c2.618-4.668 7.608-7.834 13.331-7.834zm-45.561 0c5.726 0 10.72 3.17 13.336 7.843l-26.68.012c2.615-4.679 7.613-7.855 13.344-7.855zm-45.56 0c5.735 0 10.736 3.179 13.349 7.864l-26.706.012c2.611-4.691 7.617-7.876 13.357-7.876zm-45.561 0c5.744 0 10.752 3.188 13.362 7.885l-26.731.012c2.608-4.703 7.62-7.897 13.369-7.897zm-45.56 0c5.752 0 10.768 3.198 13.375 7.906l-26.757.012c2.604-4.715 7.624-7.918 13.382-7.918zm-45.561 0c5.761 0 10.784 3.207 13.387 7.927l-26.782.012c2.601-4.727 7.629-7.939 13.395-7.939zm-35.84 119.67 14.197 181.038-25.116-14.733zm432.603 154.944c-.297.39-.964 1.043-2.105 1.043h-101.321c-4.142 0-7.5 3.357-7.5 7.5s3.358 7.5 7.5 7.5h38.879l1.379 17.586c.079 1.004-.402 1.686-.695 2.003s-.936.85-1.942.85h-334.295c-1.371 0-2.529-1.071-2.637-2.438l-16.937-215.994 25.593 92.666c1.103 3.992 5.234 6.333 9.226 5.232 3.993-1.103 6.335-5.233 5.233-9.227l-25.469-92.214h354.941l50.594 183.187c.304 1.099-.148 1.917-.444 2.306z" data-original="#000000" class="" style="fill:#000000"/><path d="m357.096 376.109h-212.205c-1.186 0-2.234-.798-2.549-1.941l-15.948-57.743c-1.103-3.993-5.237-6.333-9.226-5.232-3.993 1.103-6.335 5.233-5.233 9.227l15.948 57.742c2.105 7.624 9.099 12.948 17.008 12.948h212.205c4.142 0 7.5-3.357 7.5-7.5s-3.358-7.501-7.5-7.501z" data-original="#000000" class="" style="fill:#000000"/><path d="m142.817 273.295c2.352 7.33 9.104 12.255 16.802 12.255h29.732c5.701 0 10.896-2.642 14.256-7.246 3.359-4.605 4.288-10.359 2.546-15.788l-12.916-40.267c-2.352-7.33-9.104-12.256-16.802-12.256h-29.732c-5.701 0-10.896 2.642-14.256 7.247s-4.287 10.36-2.546 15.788zm1.749-47.216c.296-.405.967-1.086 2.137-1.086h29.732c1.154 0 2.166.738 2.519 1.838l12.916 40.267c.357 1.113-.086 1.96-.381 2.366-.296.405-.967 1.086-2.138 1.086h-29.732c-1.154 0-2.166-.738-2.519-1.837l-12.916-40.267c-.357-1.114.086-1.961.382-2.367z" data-original="#000000" class="" style="fill:#000000"/><path d="m224.193 228.037h13.845c4.142 0 7.5-3.357 7.5-7.5s-3.358-7.5-7.5-7.5h-13.845c-4.142 0-7.5 3.357-7.5 7.5s3.358 7.5 7.5 7.5z" data-original="#000000" class="" style="fill:#000000"/><path d="m271.013 228.037h13.845c4.142 0 7.5-3.357 7.5-7.5s-3.358-7.5-7.5-7.5h-13.845c-4.142 0-7.5 3.357-7.5 7.5s3.358 7.5 7.5 7.5z" data-original="#000000" class="" style="fill:#000000"/><path d="m317.832 228.037h13.845c4.142 0 7.5-3.357 7.5-7.5s-3.358-7.5-7.5-7.5h-13.845c-4.142 0-7.5 3.357-7.5 7.5s3.358 7.5 7.5 7.5z" data-original="#000000" class="" style="fill:#000000"/><path d="m364.651 228.037h13.845c4.142 0 7.5-3.357 7.5-7.5s-3.358-7.5-7.5-7.5h-13.845c-4.142 0-7.5 3.357-7.5 7.5s3.358 7.5 7.5 7.5z" data-original="#000000" class="" style="fill:#000000"/><path d="m411.47 228.037h13.845c4.142 0 7.5-3.357 7.5-7.5s-3.358-7.5-7.5-7.5h-13.845c-4.142 0-7.5 3.357-7.5 7.5s3.358 7.5 7.5 7.5z" data-original="#000000" class="" style="fill:#000000"/><path d="m226.66 261.425c0 4.143 3.358 7.5 7.5 7.5h13.845c4.142 0 7.5-3.357 7.5-7.5s-3.358-7.5-7.5-7.5h-13.845c-4.142 0-7.5 3.357-7.5 7.5z" data-original="#000000" class="" style="fill:#000000"/><path d="m273.479 261.425c0 4.143 3.358 7.5 7.5 7.5h13.845c4.142 0 7.5-3.357 7.5-7.5s-3.358-7.5-7.5-7.5h-13.845c-4.142 0-7.5 3.357-7.5 7.5z" data-original="#000000" class="" style="fill:#000000"/><path d="m320.297 261.425c0 4.143 3.358 7.5 7.5 7.5h13.845c4.142 0 7.5-3.357 7.5-7.5s-3.358-7.5-7.5-7.5h-13.845c-4.142 0-7.5 3.357-7.5 7.5z" data-original="#000000" class="" style="fill:#000000"/><path d="m395.962 261.425c0-4.143-3.358-7.5-7.5-7.5h-13.845c-4.142 0-7.5 3.357-7.5 7.5s3.358 7.5 7.5 7.5h13.845c4.142 0 7.5-3.358 7.5-7.5z" data-original="#000000" class="" style="fill:#000000"/><path d="m442.78 261.425c0-4.143-3.358-7.5-7.5-7.5h-13.845c-4.142 0-7.5 3.357-7.5 7.5s3.358 7.5 7.5 7.5h13.845c4.142 0 7.5-3.358 7.5-7.5z" data-original="#000000" class="" style="fill:#000000"/><path d="m236.626 302.314c0 4.143 3.358 7.5 7.5 7.5h13.845c4.142 0 7.5-3.357 7.5-7.5s-3.358-7.5-7.5-7.5h-13.845c-4.143 0-7.5 3.357-7.5 7.5z" data-original="#000000" class="" style="fill:#000000"/><path d="m283.444 302.314c0 4.143 3.358 7.5 7.5 7.5h13.845c4.142 0 7.5-3.357 7.5-7.5s-3.358-7.5-7.5-7.5h-13.845c-4.142 0-7.5 3.357-7.5 7.5z" data-original="#000000" class="" style="fill:#000000"/><path d="m330.264 302.314c0 4.143 3.358 7.5 7.5 7.5h13.845c4.142 0 7.5-3.357 7.5-7.5s-3.358-7.5-7.5-7.5h-13.845c-4.142 0-7.5 3.357-7.5 7.5z" data-original="#000000" class="" style="fill:#000000"/><path d="m398.427 309.814c4.142 0 7.5-3.357 7.5-7.5s-3.358-7.5-7.5-7.5h-13.845c-4.142 0-7.5 3.357-7.5 7.5s3.358 7.5 7.5 7.5z" data-original="#000000" class="" style="fill:#000000"/><path d="m445.246 309.814c4.142 0 7.5-3.357 7.5-7.5s-3.358-7.5-7.5-7.5h-13.845c-4.142 0-7.5 3.357-7.5 7.5s3.358 7.5 7.5 7.5z" data-original="#000000" class="" style="fill:#000000"/><path d="m264.893 335.701h-13.845c-4.142 0-7.5 3.357-7.5 7.5s3.358 7.5 7.5 7.5h13.845c4.142 0 7.5-3.357 7.5-7.5s-3.358-7.5-7.5-7.5z" data-original="#000000" class="" style="fill:#000000"/><path d="m311.712 335.701h-13.845c-4.142 0-7.5 3.357-7.5 7.5s3.358 7.5 7.5 7.5h13.845c4.142 0 7.5-3.357 7.5-7.5s-3.358-7.5-7.5-7.5z" data-original="#000000" class="" style="fill:#000000"/><path d="m358.531 335.701h-13.845c-4.142 0-7.5 3.357-7.5 7.5s3.358 7.5 7.5 7.5h13.845c4.142 0 7.5-3.357 7.5-7.5s-3.358-7.5-7.5-7.5z" data-original="#000000" class="" style="fill:#000000"/><path d="m405.35 335.701h-13.845c-4.142 0-7.5 3.357-7.5 7.5s3.358 7.5 7.5 7.5h13.845c4.142 0 7.5-3.357 7.5-7.5s-3.358-7.5-7.5-7.5z" data-original="#000000" class="" style="fill:#000000"/><path d="m452.169 335.701h-13.845c-4.142 0-7.5 3.357-7.5 7.5s3.358 7.5 7.5 7.5h13.845c4.142 0 7.5-3.357 7.5-7.5s-3.358-7.5-7.5-7.5z" data-original="#000000" class="" style="fill:#000000"/><path d="m169.215 303.118c-3.993 1.103-6.335 5.233-5.233 9.227l9.252 33.5c.918 3.324 3.936 5.505 7.225 5.505.661 0 1.333-.088 2.001-.272 3.993-1.103 6.335-5.233 5.233-9.227l-9.252-33.5c-1.103-3.994-5.235-6.335-9.226-5.233z" data-original="#000000" class="" style="fill:#000000"/><path d="m199.362 319.868c-3.993 1.103-6.335 5.233-5.233 9.227l4.626 16.75c.918 3.324 3.936 5.505 7.225 5.505.661 0 1.333-.088 2.001-.272 3.993-1.103 6.335-5.233 5.233-9.227l-4.626-16.75c-1.103-3.993-5.236-6.339-9.226-5.233z" data-original="#000000" class="" style="fill:#000000"/></g></g></g> </svg>
