<?xml version="1.0"?>
<svg xmlns="http://www.w3.org/2000/svg" xmlns:xlink="http://www.w3.org/1999/xlink" version="1.1" id="Capa_1" x="0px" y="0px" viewBox="0 0 480 480" style="enable-background:new 0 0 480 480;" xml:space="preserve" width="512px" height="512px" class=""><g><path style="fill:#FFEAB8;" d="M8,32h464v408H8V32z" data-original="#FFEAB8" class=""/><path style="fill:#FFF3C9;" d="M392,440H8V32h464v328L392,440z" data-original="#FFF3C9" class=""/><path style="fill:#FFEAB8;" d="M176,440h216l80-80V144L176,440z" data-original="#FFEAB8" class=""/><path style="fill:#FF4500" d="M8,32h464v88H8V32z" data-original="#FC88A1" class="active-path" data-old_color="#FC88A1"/><g>
	<path style="fill:#7FC0E6;" d="M232,0h16v64h-16V0z" data-original="#7FC0E6"/>
	<path style="fill:#7FC0E6;" d="M168,0h16v64h-16V0z" data-original="#7FC0E6"/>
	<path style="fill:#7FC0E6;" d="M104,0h16v64h-16V0z" data-original="#7FC0E6"/>
	<path style="fill:#7FC0E6;" d="M40,0h16v64H40V0z" data-original="#7FC0E6"/>
	<path style="fill:#7FC0E6;" d="M424,0h16v64h-16V0z" data-original="#7FC0E6"/>
	<path style="fill:#7FC0E6;" d="M360,0h16v64h-16V0z" data-original="#7FC0E6"/>
	<path style="fill:#7FC0E6;" d="M296,0h16v64h-16V0z" data-original="#7FC0E6"/>
</g><path style="fill:#FFDDA6;" d="M8,440h464v32H8V440z" data-original="#FFDDA6" class=""/><path style="fill:#FFFFFF;" d="M392,440v-80h80L392,440z" data-original="#FFFFFF" class=""/><g>
	<path style="fill:#FFDDA6;" d="M72,160h48v48H72V160z" data-original="#FFDDA6" class=""/>
	<path style="fill:#FFDDA6;" d="M168,160h48v48h-48V160z" data-original="#FFDDA6" class=""/>
	<path style="fill:#FFDDA6;" d="M264,160h48v48h-48V160z" data-original="#FFDDA6" class=""/>
	<path style="fill:#FFDDA6;" d="M72,256h48v48H72V256z" data-original="#FFDDA6" class=""/>
	<path style="fill:#FFDDA6;" d="M264,256h48v48h-48V256z" data-original="#FFDDA6" class=""/>
	<path style="fill:#FFDDA6;" d="M72,352h48v48H72V352z" data-original="#FFDDA6" class=""/>
	<path style="fill:#FFDDA6;" d="M168,352h48v48h-48V352z" data-original="#FFDDA6" class=""/>
	<path style="fill:#FFDDA6;" d="M264,352h48v48h-48V352z" data-original="#FFDDA6" class=""/>
	<path style="fill:#FFDDA6;" d="M360,160h48v48h-48V160z" data-original="#FFDDA6" class=""/>
	<path style="fill:#FFDDA6;" d="M360,256h48v48h-48V256z" data-original="#FFDDA6" class=""/>
</g><path style="fill:#FF4500" d="M192,319.76l-36.648-36.648c-6.673-6.675-7.946-17.036-3.088-25.128  c5.845-9.74,18.48-12.897,28.22-7.052c2.28,1.368,4.273,3.165,5.868,5.292L192,263.76l5.648-7.536  c6.817-9.086,19.71-10.926,28.796-4.108c2.127,1.596,3.924,3.589,5.292,5.868c4.858,8.092,3.585,18.453-3.088,25.128L192,319.76z" data-original="#FC88A1" class="active-path" data-old_color="#FC88A1"/><path d="M472,24h-32V0h-16v24h-48V0h-16v24h-48V0h-16v24h-48V0h-16v24h-48V0h-16v24h-48V0h-16v24H56V0H40v24H8c-4.418,0-8,3.582-8,8  v440c0,4.418,3.582,8,8,8h464c4.418,0,8-3.582,8-8V32C480,27.582,476.418,24,472,24z M16,432V128h448v224h-72c-4.418,0-8,3.582-8,8  v72H16z M452.688,368L400,420.688V368H452.688z M464,379.312V432h-52.688L464,379.312z M16,40h24v24h16V40h48v24h16V40h48v24h16V40  h48v24h16V40h48v24h16V40h48v24h16V40h48v24h16V40h24v72H16V40z M464,464H16v-16h448V464z" data-original="#000000" class=""/><path d="M120,152H72c-4.418,0-8,3.582-8,8v48c0,4.418,3.582,8,8,8h48c4.418,0,8-3.582,8-8v-48C128,155.582,124.418,152,120,152z   M112,200H80v-32h32V200z" data-original="#000000" class=""/><path d="M168,216h48c4.418,0,8-3.582,8-8v-48c0-4.418-3.582-8-8-8h-48c-4.418,0-8,3.582-8,8v48C160,212.418,163.582,216,168,216z   M176,168h32v32h-32V168z" data-original="#000000" class=""/><path d="M312,152h-48c-4.418,0-8,3.582-8,8v48c0,4.418,3.582,8,8,8h48c4.418,0,8-3.582,8-8v-48C320,155.582,316.418,152,312,152z   M304,200h-32v-32h32V200z" data-original="#000000" class=""/><path d="M120,248H72c-4.418,0-8,3.582-8,8v48c0,4.418,3.582,8,8,8h48c4.418,0,8-3.582,8-8v-48C128,251.582,124.418,248,120,248z   M112,296H80v-32h32V296z" data-original="#000000" class=""/><path d="M312,248h-48c-4.418,0-8,3.582-8,8v48c0,4.418,3.582,8,8,8h48c4.418,0,8-3.582,8-8v-48C320,251.582,316.418,248,312,248z   M304,296h-32v-32h32V296z" data-original="#000000" class=""/><path d="M120,344H72c-4.418,0-8,3.582-8,8v48c0,4.418,3.582,8,8,8h48c4.418,0,8-3.582,8-8v-48C128,347.582,124.418,344,120,344z   M112,392H80v-32h32V392z" data-original="#000000" class=""/><path d="M216,344h-48c-4.418,0-8,3.582-8,8v48c0,4.418,3.582,8,8,8h48c4.418,0,8-3.582,8-8v-48C224,347.582,220.418,344,216,344z   M208,392h-32v-32h32V392z" data-original="#000000" class=""/><path d="M312,344h-48c-4.418,0-8,3.582-8,8v48c0,4.418,3.582,8,8,8h48c4.418,0,8-3.582,8-8v-48C320,347.582,316.418,344,312,344z   M304,392h-32v-32h32V392z" data-original="#000000" class=""/><path d="M360,216h48c4.418,0,8-3.582,8-8v-48c0-4.418-3.582-8-8-8h-48c-4.418,0-8,3.582-8,8v48C352,212.418,355.582,216,360,216z   M368,168h32v32h-32V168z" data-original="#000000" class=""/><path d="M416,304v-48c0-4.418-3.582-8-8-8h-48c-4.418,0-8,3.582-8,8v48c0,4.418,3.582,8,8,8h48C412.418,312,416,308.418,416,304z   M400,296h-32v-32h32V296z" data-original="#000000" class=""/><path d="M215.568,240.04c-9.065-0.452-17.808,3.418-23.568,10.432c-10.089-12.131-28.101-13.786-40.232-3.697  c-12.131,10.089-13.786,28.101-3.697,40.232c0.516,0.621,1.058,1.219,1.625,1.794l36.648,36.648c3.124,3.123,8.188,3.123,11.312,0  l36.648-36.648c11.159-11.148,11.168-29.231,0.02-40.39c-5.003-5.008-11.687-7.979-18.756-8.338V240.04z M222.992,277.456  L192,308.448l-30.984-30.992c-4.085-4.074-4.867-10.407-1.896-15.352c2.124-3.619,5.936-5.917,10.128-6.104h0.688  c3.949-0.018,7.669,1.848,10.016,5.024l5.648,7.536c2.908,3.535,8.131,4.042,11.666,1.134c0.414-0.34,0.794-0.72,1.134-1.134  l5.648-7.536c4.179-5.542,12.059-6.648,17.602-2.469c1.283,0.968,2.369,2.172,3.198,3.549  C227.826,267.041,227.061,273.371,222.992,277.456L222.992,277.456z" data-original="#000000" class=""/></g> </svg>
