<?xml version="1.0"?>
<svg xmlns="http://www.w3.org/2000/svg" height="512px" viewBox="0 0 469.33333 469.33333" width="512px"><g><path d="m247.894531 250.667969h-45.226562v37.332031h45.226562c10.453125 0 18.773438-8.320312 18.773438-18.773438 0-10.238281-8.320313-18.558593-18.773438-18.558593zm0 0" data-original="#000000" class="active-path" data-old_color="#000000" fill="#4d4d4d"/><path d="m256 200.105469c0-10.453125-8.320312-18.773438-18.773438-18.773438h-34.558593v37.335938h34.558593c10.453126 0 18.773438-8.320313 18.773438-18.5625zm0 0" data-original="#000000" class="active-path" data-old_color="#000000" fill="#4d4d4d"/><path d="m234.667969 0c-129.496094 0-234.667969 105.171875-234.667969 234.667969 0 129.492187 105.171875 234.664062 234.667969 234.664062 129.492187 0 234.664062-105.171875 234.664062-234.664062 0-129.496094-105.171875-234.667969-234.664062-234.667969zm13.226562 320h-2.5625v5.332031c0 8.746094-7.253906 16-16 16-8.746093 0-16-7.253906-16-16v-5.332031h-26.664062c-8.746094 0-16-7.253906-16-16v-138.667969c0-8.746093 7.253906-16 16-16h26.664062v-5.332031c0-8.746094 7.253907-16 16-16 8.746094 0 16 7.253906 16 16v5.972656c24.109375 3.839844 42.667969 24.960938 42.667969 50.132813 0 10.882812-3.414062 20.695312-9.386719 29.015625 12.160157 9.171875 20.054688 23.890625 20.054688 40.105468 0 27.945313-22.828125 50.773438-50.773438 50.773438zm0 0" data-original="#000000" class="active-path" data-old_color="#000000" fill="#4d4d4d"/></g> </svg>
