<?xml version="1.0"?>
<svg xmlns="http://www.w3.org/2000/svg" height="512px" viewBox="-31 0 511 512" width="512px"><g><path d="m135.707031 78.082031c8.285157 0 15-6.714843 15-15v-48.082031c0-8.285156-6.714843-15-15-15-8.28125 0-15 6.714844-15 15v48.082031c0 8.285157 6.71875 15 15 15zm0 0" data-original="#000000" class="active-path" data-old_color="#000000" fill="#4d4d4d"/><path d="m69.238281 89.953125c2.929688 2.929687 6.769531 4.394531 10.609375 4.394531 3.835938 0 7.675782-1.464844 10.605469-4.394531 5.855469-5.855469 5.855469-15.355469 0-21.214844l-35.355469-35.351562c-5.855468-5.859375-15.355468-5.859375-21.210937 0-5.859375 5.855469-5.859375 15.351562 0 21.210937zm0 0" data-original="#000000" class="active-path" data-old_color="#000000" fill="#4d4d4d"/><path d="m78.582031 135.207031c0-8.28125-6.714843-15-15-15h-48.082031c-8.285156 0-15 6.71875-15 15 0 8.285157 6.714844 15 15 15h48.082031c8.285157 0 15-6.714843 15-15zm0 0" data-original="#000000" class="active-path" data-old_color="#000000" fill="#4d4d4d"/><path d="m201.582031 435.179688c-8.496093 8.5-13.179687 19.800781-13.179687 31.820312s4.679687 23.320312 13.179687 31.820312 19.800781 13.179688 31.820313 13.179688c12.019531 0 23.320312-4.683594 31.820312-13.179688l47.304688-47.304687-79.035156-48.246094zm0 0" data-original="#000000" class="active-path" data-old_color="#000000" fill="#4d4d4d"/><path d="m448.324219 363.566406-143.9375-235.816406-176.136719 176.136719 235.816406 143.9375c2.417969 1.480469 5.125 2.199219 7.8125 2.199219 3.875 0 7.71875-1.503907 10.609375-4.394532l63.640625-63.640625c4.898438-4.898437 5.804688-12.507812 2.195313-18.421875zm0 0" data-original="#000000" class="active-path" data-old_color="#000000" fill="#4d4d4d"/><path d="m279.957031 46.113281c-17.542969-17.546875-46.09375-17.546875-63.640625 0l-169.703125 169.703125c-17.546875 17.546875-17.546875 46.09375 0 63.640625 8.773438 8.773438 20.296875 13.160157 31.820313 13.160157 11.519531 0 23.046875-4.386719 31.816406-13.160157l169.707031-169.703125c17.546875-17.546875 17.546875-46.097656 0-63.640625zm0 0" data-original="#000000" class="active-path" data-old_color="#000000" fill="#4d4d4d"/></g> </svg>
