<?xml version='1.0' encoding='utf-8'?>
<!DOCTYPE svg PUBLIC '-//W3C//DTD SVG 1.1//EN' 'http://www.w3.org/Graphics/SVG/1.1/DTD/svg11.dtd'>
<svg xmlns="http://www.w3.org/2000/svg" xmlns:xlink="http://www.w3.org/1999/xlink" version="1.1" id="Capa_1" x="0px" y="0px" viewBox="0 0 410.2 410.2" style="enable-background:new 0 0 410.2 410.2;" xml:space="preserve">
<g>
	<g>
		<g>
			
			<path d="M358.26,257.38h-142c-2.671,0.164-4.8,2.294-4.964,4.964c-0.18,2.922,2.043,5.436,4.964,5.616h142     c2.671-0.164,4.8-2.294,4.964-4.964C363.404,260.074,361.182,257.56,358.26,257.38z"/>
			
			<path d="M374.9,57.38H35.3C15.827,57.435,0.055,73.207,0,92.68v224.84c0.055,19.473,15.827,35.245,35.3,35.3h339.6     c19.473-0.055,35.245-15.827,35.3-35.3V92.68C410.145,73.207,394.373,57.435,374.9,57.38z M399.62,317.52     c-0.044,13.634-11.086,24.676-24.72,24.72H35.3c-13.634-0.044-24.676-11.086-24.72-24.72V92.68     c0.044-13.634,11.086-24.676,24.72-24.72h339.6c13.634,0.044,24.676,11.086,24.72,24.72V317.52z"/>
			<path d="M358.26,142.26h-142c-2.671,0.164-4.8,2.294-4.965,4.965c-0.18,2.922,2.043,5.436,4.965,5.615h142     c2.671-0.164,4.8-2.294,4.965-4.965C363.404,144.954,361.182,142.44,358.26,142.26z"/>
			<path d="M358.26,199.82h-142c-2.671,0.164-4.8,2.294-4.965,4.965c-0.18,2.922,2.043,5.436,4.965,5.615h142     c2.671-0.164,4.8-2.294,4.965-4.965C363.404,202.514,361.182,200,358.26,199.82z"/>
			
			
		</g>
	</g>
</g>
<g>
</g>
<g>
</g>
<g>
</g>
<g>
</g>
<g>
</g>
<g>
</g>
<g>
</g>
<g>
</g>
<g>
</g>
<g>
</g>
<g>
</g>
<g>
</g>
<g>
</g>
<g>
</g>
<g>
</g>
</svg>