<?xml version="1.0" encoding="iso-8859-1"?>
<!-- Generator: Adobe Illustrator 19.0.0, SVG Export Plug-In . SVG Version: 6.00 Build 0)  -->
<svg version="1.1" id="Capa_1" xmlns="http://www.w3.org/2000/svg" xmlns:xlink="http://www.w3.org/1999/xlink" x="0px" y="0px"
	 viewBox="0 0 422.139 422.139" style="enable-background:new 0 0 422.139 422.139;" xml:space="preserve">
<path style="fill:#3A2C51;" d="M417.437,395.494L314.514,292.049c-3.657,4.18-6.792,7.837-10.971,11.494
	c-3.657,3.657-7.314,7.314-11.494,10.449l103.445,103.445c3.135,3.135,7.314,4.702,10.971,4.702s7.837-1.567,10.971-4.702
	C423.706,411.167,423.706,401.241,417.437,395.494z"/>
<g>
	<path style="fill:#4DCFE0;" d="M95.086,96.653c-22.465,22.465-33.959,54.335-30.824,86.727c1.045,7.837,7.837,14.106,15.673,14.106
		c0.522,0,1.045,0,1.567,0c8.359-1.045,15.151-8.359,14.106-17.241c-2.09-22.988,5.747-45.453,21.42-61.649
		c6.269-6.269,6.269-16.196,0-21.943S101.355,90.384,95.086,96.653z"/>
	<path style="fill:#4DCFE0;" d="M316.604,294.139c26.645-31.869,41.796-72.62,41.796-114.939C358.4,80.457,277.943,0,179.2,0
		S0,80.457,0,179.2s80.457,179.2,179.2,179.2c42.318,0,83.592-15.151,114.939-41.796c4.18-3.135,7.837-6.792,11.494-10.449
		C309.29,301.975,312.947,298.318,316.604,294.139z M31.347,179.2c0-81.502,66.351-147.853,147.853-147.853
		c81.502,0,147.853,66.351,147.853,147.853c0,39.184-15.673,77.322-43.363,104.49c-27.167,27.69-65.306,43.363-104.49,43.363
		C97.698,327.053,31.347,260.702,31.347,179.2z"/>
</g>
<g>
</g>
<g>
</g>
<g>
</g>
<g>
</g>
<g>
</g>
<g>
</g>
<g>
</g>
<g>
</g>
<g>
</g>
<g>
</g>
<g>
</g>
<g>
</g>
<g>
</g>
<g>
</g>
<g>
</g>
</svg>
