<?xml version="1.0" encoding="UTF-8" standalone="no"?>
<!DOCTYPE svg PUBLIC "-//W3C//DTD SVG 1.1//EN" "http://www.w3.org/Graphics/SVG/1.1/DTD/svg11.dtd">
<svg width="100%" height="100%" viewBox="0 0 512 512" version="1.1" xmlns="http://www.w3.org/2000/svg" xmlns:xlink="http://www.w3.org/1999/xlink" xml:space="preserve" xmlns:serif="http://www.serif.com/" style="fill-rule:evenodd;clip-rule:evenodd;stroke-linejoin:round;stroke-miterlimit:2;">
    <g>
        <g>
            <path d="M256,0C141.214,0 48.159,93.055 48.159,207.841C48.159,311.971 177.655,448.974 232.225,502.088C245.592,515.071 266.725,515.342 280.35,502.619C335.249,451.446 463.841,319.613 463.841,207.83C463.83,93.055 370.786,0 256,0ZM256,275.372C208.541,275.372 170.091,236.922 170.091,189.474C170.091,142.027 208.541,103.565 256,103.565C303.448,103.565 341.886,142.015 341.886,189.474C341.886,236.933 303.448,275.372 256,275.372Z" style="fill:rgb(67,81,122);fill-rule:nonzero;"/>
        </g>
    </g>
    <g transform="matrix(1,0,0,1,5.5001,14.4978)">
        <g transform="matrix(0.536983,0,0,0.536983,-71.6897,-49.1424)">
            <path d="M938,450C938.053,493.419 929.716,536.443 913.45,576.7C913.41,576.79 913.38,576.87 913.34,576.96L913.34,576.97C902.406,603.927 888.023,629.352 870.55,652.61C867.18,657.11 863.703,661.517 860.12,665.83C858.81,667.41 857.48,668.98 856.15,670.53C849.3,678.48 842.093,686.097 834.53,693.38C832.77,695.08 830.99,696.76 829.19,698.42C828.77,698.81 828.35,699.19 827.93,699.58C819.121,707.63 809.891,715.207 800.28,722.28C793.83,727.05 787.21,731.58 780.42,735.87C778.93,736.82 777.43,737.753 775.92,738.67C773.3,740.27 770.657,741.833 767.99,743.36C764.51,745.36 760.987,747.297 757.42,749.17C755.98,749.94 754.53,750.68 753.08,751.42C750.96,752.51 748.83,753.56 746.68,754.59C746.31,754.77 745.94,754.95 745.57,755.12C744.17,755.8 742.75,756.46 741.33,757.12C722.837,765.65 703.603,772.475 683.87,777.51C683.76,777.54 683.66,777.56 683.55,777.59C682.26,777.92 680.96,778.24 679.66,778.55C678.69,778.79 677.71,779.02 676.73,779.24C676.609,779.279 676.485,779.309 676.36,779.33C674.35,779.8 672.34,780.25 670.31,780.66C669.17,780.9 668.03,781.14 666.89,781.37C666.2,781.52 665.5,781.65 664.81,781.78C663.94,781.95 663.08,782.11 662.21,782.28C661.73,782.38 661.25,782.46 660.76,782.54C659.66,782.74 658.56,782.94 657.47,783.13C655.61,783.45 653.73,783.76 651.86,784.04C650.5,784.25 649.15,784.45 647.79,784.64C646.19,784.87 644.59,785.08 642.98,785.28C642.54,785.35 642.1,785.4 641.66,785.45C641.09,785.52 640.52,785.59 639.95,785.66C638.8,785.8 637.65,785.93 636.49,786.05C635.89,786.12 635.3,786.18 634.7,786.24C633.56,786.36 632.42,786.47 631.28,786.57C629.81,786.71 628.34,786.83 626.86,786.95C625.06,787.09 623.27,787.22 621.46,787.33C620.3,787.4 619.14,787.47 617.97,787.53C614.99,787.69 612.01,787.8 609.01,787.88C607.52,787.92 606.02,787.95 604.52,787.97L604.49,787.97C603,787.99 601.5,788 600,788C584.799,788.006 569.615,786.991 554.55,784.96C543.5,783.48 532.627,781.473 521.93,778.94C521.5,778.84 521.07,778.74 520.65,778.63C519.57,778.38 518.5,778.11 517.43,777.84C516.48,777.6 515.54,777.35 514.59,777.1C490.106,770.729 466.422,761.607 443.99,749.91C443.88,749.85 443.76,749.79 443.65,749.73C443,749.39 442.36,749.06 441.72,748.71C440.31,747.97 438.907,747.217 437.51,746.45C429.56,742.08 421.813,737.407 414.27,732.43C412.33,731.16 410.41,729.87 408.51,728.56C407.9,728.14 407.3,727.72 406.7,727.3C406.07,726.86 405.44,726.42 404.82,725.98C403.17,724.81 401.53,723.627 399.9,722.43C393.15,717.47 386.6,712.267 380.25,706.82C357.743,687.544 337.854,665.406 321.09,640.97C315.24,632.45 309.78,623.657 304.71,614.59C276.615,564.293 261.907,507.612 262,450C262,263.33 413.33,112 600,112C786.67,112 938,263.33 938,450Z" style="fill:rgb(232,232,232);fill-rule:nonzero;"/>
        </g>
        <g transform="matrix(0.536983,0,0,0.536983,-71.6897,-49.1424)">
            <path d="M654.35,778.63C655.43,778.38 656.5,778.11 657.57,777.84C658.52,777.6 659.46,777.35 660.41,777.1C660.46,775.11 660.53,772.92 660.6,770.55C661.19,751.99 662.58,722.11 665.86,686.11C666.04,684.18 666.22,682.237 666.4,680.28C667.57,668.08 668.94,655.25 670.58,641.95C670.63,641.51 670.69,641.08 670.74,640.64C672.07,629.86 673.58,618.79 675.28,607.51C676.47,599.62 677.757,591.643 679.14,583.58C679.24,583.02 679.34,582.45 679.44,581.89C679.84,579.56 680.25,577.24 680.67,574.9C681.84,568.39 683.09,561.84 684.4,555.29C689.01,532.25 694.5,509.07 701.05,486.52C707.704,463.134 715.898,440.214 725.58,417.91C733.089,400.584 742.034,383.916 752.32,368.08C752.47,367.85 752.62,367.63 752.77,367.4C765.92,347.59 780.95,330.78 798.11,318.21L794.55,313.35C778.11,325.4 763.03,341.433 749.31,361.45C749.24,361.55 749.18,361.64 749.11,361.74C738.793,377.039 729.787,393.184 722.19,410C712.017,432.494 703.436,455.674 696.51,479.37C689.95,501.39 684.067,525.247 678.86,550.94C677.03,559.99 675.283,569.263 673.62,578.76C673.34,580.38 673.06,582 672.78,583.63C672.78,583.65 672.77,583.68 672.77,583.7C672.34,586.2 671.93,588.7 671.51,591.23C670.47,597.6 669.49,603.92 668.57,610.19C667.15,619.85 665.867,629.343 664.72,638.67C664.34,641.75 663.973,644.807 663.62,647.84C663.12,652.12 662.647,656.343 662.2,660.51C661.57,666.31 660.993,671.987 660.47,677.54L660.32,679.07C660.24,679.95 660.16,680.83 660.08,681.7C656.02,725.49 654.75,760.86 654.35,778.63Z" style="fill:rgb(232,232,232);fill-opacity:0.2;fill-rule:nonzero;"/>
        </g>
        <g transform="matrix(0.536983,0,0,0.536983,-71.6897,-49.1424)">
            <path d="M731.01,749.91C731.12,749.85 731.24,749.79 731.35,749.73C733.41,748.66 735.45,747.57 737.49,746.45C738.16,738.47 739.06,729.7 740.24,720.48C740.49,718.58 740.74,716.65 741.02,714.71C741.16,713.67 741.31,712.62 741.46,711.56C742.64,703.44 744.04,695.06 745.72,686.64C752.55,652.28 763.89,617.16 782.72,595.48C783.73,594.31 784.76,593.19 785.83,592.1C788.482,589.345 791.362,586.819 794.44,584.55L790.88,579.7C786.583,582.878 782.629,586.494 779.08,590.49C777.83,591.88 776.61,593.327 775.42,594.83C758.09,616.64 747.27,648.93 740.53,680.9C738.77,689.24 737.29,697.57 736.03,705.68C735.71,707.8 735.403,709.9 735.11,711.98C733.16,725.72 731.87,738.7 731.01,749.91Z" style="fill:rgb(232,232,232);fill-opacity:0.2;fill-rule:nonzero;"/>
        </g>
        <g transform="matrix(0.536983,0,0,0.536983,68.9998,10.9997)">
            <circle cx="569.738" cy="175.982" r="30.089" style="fill:rgb(232,232,232);fill-opacity:0.2;"/>
        </g>
        <g transform="matrix(0.536983,0,0,0.536983,68.9998,10.9997)">
            <circle cx="560.049" cy="434.991" r="30.089" style="fill:rgb(232,232,232);fill-opacity:0.2;"/>
        </g>
        <g transform="matrix(0.536983,0,0,0.536983,-71.6897,-49.1424)">
            <path d="M712.286,338.521C718.666,374.519 704.581,407.114 704.581,407.114C704.581,407.114 680.151,381.345 673.771,345.348C667.39,309.351 681.475,276.756 681.475,276.756C681.475,276.756 705.905,302.524 712.286,338.521Z" style="fill:rgb(232,232,232);fill-opacity:0.2;fill-rule:nonzero;"/>
        </g>
        <g transform="matrix(0.536983,0,0,0.536983,-71.6897,-49.1424)">
            <path d="M812.282,423.971C777.947,436.526 743.446,428.469 743.446,428.469C743.446,428.469 764.612,400.056 798.947,387.501C833.282,374.946 867.783,383.003 867.783,383.003C867.783,383.003 846.617,411.416 812.282,423.971Z" style="fill:rgb(232,232,232);fill-opacity:0.2;fill-rule:nonzero;"/>
        </g>
        <g transform="matrix(0.536983,0,0,0.536983,-71.6897,-49.1424)">
            <path d="M818.105,653.333C794.039,662.133 769.822,656.392 769.822,656.392C769.822,656.392 784.623,636.384 808.689,627.584C832.755,618.784 856.972,624.525 856.972,624.525C856.972,624.525 842.171,644.533 818.105,653.333Z" style="fill:rgb(232,232,232);fill-opacity:0.2;fill-rule:nonzero;"/>
        </g>
        <g transform="matrix(0.536983,0,0,0.536983,-71.6897,-49.1424)">
            <path d="M701.96,648.27L703.18,648.9C703.06,650.2 702.77,651 701.96,648.27Z" style="fill:rgb(232,232,232);fill-rule:nonzero;"/>
        </g>
        <g transform="matrix(0.536983,0,0,0.536983,-71.6897,-49.1424)">
            <path d="M703.57,648.69C703.58,648.83 703.6,648.98 703.61,649.12L703.18,648.9C703.19,648.77 703.2,648.63 703.22,648.49C703.32,646.74 703.2,644.67 703.57,648.69Z" style="fill:rgb(232,232,232);fill-rule:nonzero;"/>
        </g>
        <g transform="matrix(0.536983,0,0,0.536983,68.9998,10.9997)">
            <circle cx="311.683" cy="324.641" r="164.209" style="fill:rgb(232,232,232);"/>
        </g>
        <g transform="matrix(0.536983,0,0,0.536983,68.9998,10.9997)">
            <circle cx="325.2" cy="382.713" r="99.444" style="fill:rgb(232,232,232);"/>
        </g>
        <g transform="matrix(0.536983,0,0,0.536983,-71.6897,-49.1424)">
            <path d="M814.27,685.31L814.15,685.34L791.02,690.89L742.86,702.45L736.29,704.03L663.05,721.6L656.83,723.1L479.14,765.74C467.128,761.145 455.392,755.86 443.99,749.91C443.88,749.85 443.76,749.79 443.65,749.73C443,749.39 442.36,749.06 441.72,748.71C440.31,747.97 438.907,747.217 437.51,746.45C429.56,742.08 421.813,737.407 414.27,732.43C412.33,731.16 410.41,729.87 408.51,728.56C407.9,728.14 407.3,727.72 406.7,727.3C406.07,726.86 405.44,726.42 404.82,725.98C403.17,724.81 401.53,723.627 399.9,722.43C417.16,691.06 458.26,670.21 499.36,658.8C530.38,650.18 537.2,621.85 536.61,596.64C536.46,590.89 535.972,585.153 535.15,579.46C533.897,570.399 531.904,561.456 529.19,552.72L628.64,556.04L638.9,579.68C638.619,582.277 638.529,584.89 638.63,587.5C639.41,606.89 651.38,619.43 666.15,627.52C668.07,628.57 670.04,629.55 672.04,630.46C696.26,641.47 724.77,642.22 724.77,642.22C733.451,641.26 742.221,641.425 750.86,642.71C752.96,643.03 755,643.413 756.98,643.86C768.54,646.444 779.461,651.331 789.09,658.23C792.768,660.846 796.247,663.731 799.5,666.86C805.281,672.271 810.256,678.484 814.27,685.31Z" style="fill:rgb(232,232,232);fill-rule:nonzero;"/>
        </g>
        <g transform="matrix(0.536983,0,0,0.536983,-71.6897,-49.1424)">
            <path d="M829.19,698.42C828.77,698.81 828.35,699.19 827.93,699.58C819.121,707.63 809.891,715.207 800.28,722.28C793.83,727.05 787.21,731.58 780.42,735.87C778.93,736.82 777.43,737.753 775.92,738.67C773.3,740.27 770.657,741.833 767.99,743.36C764.51,745.36 760.987,747.297 757.42,749.17C755.98,749.94 754.53,750.68 753.08,751.42C750.96,752.51 748.83,753.56 746.68,754.59C746.31,754.77 745.94,754.95 745.57,755.12L741.34,751.61L801.01,678.68C801.01,678.68 805,678.68 814.15,685.34C819.207,689.104 823.986,693.228 828.45,697.68C828.69,697.93 828.94,698.17 829.19,698.42Z" style="fill:rgb(232,232,232);fill-rule:nonzero;"/>
        </g>
        <g transform="matrix(0.536983,0,0,0.536983,-71.6897,-49.1424)">
            <path d="M828.49,697.74C828.356,698.368 828.168,698.984 827.93,699.58C819.121,707.63 809.891,715.207 800.28,722.28C791.941,725.286 783.29,727.342 774.49,728.41C765.69,729.478 775.24,732.17 775.92,738.67C773.3,740.27 770.657,741.833 767.99,743.36C764.51,745.36 760.987,747.297 757.42,749.17C755.98,749.94 754.53,750.68 753.08,751.42C750.96,752.51 748.83,753.56 746.68,754.59C746.31,754.77 745.94,754.95 745.57,755.12C744.17,755.8 742.75,756.46 741.33,757.12C722.837,765.65 703.603,772.475 683.87,777.51C683.76,777.54 683.66,777.56 683.55,777.59C682.26,777.92 680.96,778.24 679.66,778.55C678.69,778.79 677.71,779.02 676.73,779.24C676.609,779.279 676.485,779.309 676.36,779.33C674.35,779.8 672.34,780.25 670.31,780.66C669.17,780.9 668.03,781.14 666.89,781.37C666.2,781.52 665.5,781.65 664.81,781.78C663.94,781.95 663.08,782.11 662.21,782.28C661.73,782.38 661.25,782.46 660.76,782.54C659.66,782.74 658.56,782.94 657.47,783.13C655.61,783.45 653.73,783.76 651.86,784.04C650.5,784.25 649.15,784.45 647.79,784.64C646.19,784.87 644.59,785.08 642.98,785.28C642.54,785.35 642.1,785.4 641.66,785.45C641.09,785.52 640.52,785.59 639.95,785.66C638.8,785.8 637.65,785.93 636.49,786.05C635.89,786.12 635.3,786.18 634.7,786.24C633.56,786.36 632.42,786.47 631.28,786.57C629.81,786.71 628.34,786.83 626.86,786.95C625.06,787.09 623.27,787.22 621.46,787.33C620.3,787.4 619.14,787.47 617.97,787.53C614.99,787.69 612.01,787.8 609.01,787.88C607.52,787.92 606.02,787.95 604.52,787.97L604.49,787.97C603,787.99 601.5,788 600,788C584.799,788.006 569.615,786.991 554.55,784.96C543.5,783.48 532.627,781.473 521.93,778.94C521.5,778.84 521.07,778.74 520.65,778.63C519.57,778.38 518.5,778.11 517.43,777.84C516.48,777.6 515.54,777.35 514.59,777.1C490.106,770.729 466.422,761.607 443.99,749.91C443.88,749.85 443.76,749.79 443.65,749.73C443,749.39 442.36,749.06 441.72,748.71C496.61,735.92 583.35,715.75 658.62,698.47C660.73,697.99 662.827,697.51 664.91,697.03C692.71,690.65 718.75,684.71 740.78,679.74C743.06,679.23 745.293,678.73 747.48,678.24C771.15,672.92 789.53,668.88 799.5,666.86C802.187,666.246 804.904,665.769 807.64,665.43L828.45,697.68L828.49,697.74Z" style="fill:rgb(232,232,232);fill-rule:nonzero;"/>
        </g>
        <g transform="matrix(0.536983,0,0,0.536983,68.9998,10.9997)">
            <circle cx="161.449" cy="205.851" r="48.913" style="fill:rgb(232,232,232);"/>
        </g>
        <g transform="matrix(0.536983,0,0,0.536983,68.9998,10.9997)">
            <circle cx="461.917" cy="191.876" r="48.913" style="fill:rgb(232,232,232);"/>
        </g>
        <g transform="matrix(0.536983,0,0,0.536983,-71.6897,-49.1424)">
            <path d="M671.51,282.913C671.513,258.055 690.467,236.952 715.182,234.289C713.418,234.096 711.645,234 709.871,234C683.038,234 660.958,256.08 660.958,282.913C660.958,309.746 683.038,331.827 709.871,331.827C711.645,331.827 713.418,331.73 715.182,331.537C690.467,328.875 671.513,307.772 671.51,282.913Z" style="fill:rgb(232,232,232);fill-rule:nonzero;"/>
        </g>
        <g transform="matrix(0.536983,0,0,0.536983,-71.6897,-49.1424)">
            <path d="M368.796,357.416C351.401,339.658 350.17,311.32 365.96,292.12C354.176,301.388 347.283,315.577 347.283,330.569C347.283,357.402 369.364,379.482 396.197,379.482C410.84,379.482 424.736,372.907 434.021,361.583C414.503,376.978 386.196,375.17 368.796,357.416Z" style="fill:rgb(232,232,232);fill-rule:nonzero;"/>
        </g>
        <g transform="matrix(0.536983,0,0,0.536983,-71.6897,-49.1424)">
            <path d="M573.683,359.777C515.796,359.777 468.869,387.151 468.869,420.919C468.869,436.028 478.301,449.837 493.872,460.504L514.05,445.884L508.562,468.788C510.839,469.844 513.164,470.865 515.589,471.809L545.732,436.641L545.732,479.845C554.975,481.326 564.322,482.066 573.683,482.06C631.57,482.06 678.497,454.686 678.497,420.919C678.497,387.151 631.57,359.777 573.683,359.777Z" style="fill:rgb(232,232,232);fill-rule:nonzero;"/>
        </g>
        <g transform="matrix(0.536983,0,0,0.536983,-71.6897,-49.1424)">
            <path d="M675.003,303.876C675.003,303.876 667.407,338.814 714.878,352.79L675.003,303.876Z" style="fill:rgb(232,232,232);fill-rule:nonzero;"/>
        </g>
        <g transform="matrix(0.536983,0,0,0.536983,-71.6897,-49.1424)">
            <path d="M468.869,310.235C468.869,310.235 486.338,349.296 433.931,366.765L468.869,310.235Z" style="fill:rgb(232,232,232);fill-rule:nonzero;"/>
        </g>
        <g transform="matrix(0.517102,-0.144761,0.144761,0.517102,-136.454,31.9364)">
            <ellipse cx="489.413" cy="514.602" rx="8.287" ry="19.889" style="fill:rgb(232,232,232);"/>
        </g>
        <g transform="matrix(0.0330087,-0.535967,0.535967,0.0330087,8.27037,570.758)">
            <ellipse cx="688.302" cy="498.027" rx="19.889" ry="8.287" style="fill:rgb(232,232,232);"/>
        </g>
    </g>
    <g id="store.svg" transform="matrix(0.46875,0,0,0.46875,256,204)">
        <g transform="matrix(1,0,0,1,-256,-256)">
            <path d="M85.333,192L426.666,192C432.557,192 437.333,196.776 437.333,202.667L437.333,458.667C437.333,464.558 432.557,469.334 426.666,469.334L85.333,469.334C79.442,469.334 74.666,464.558 74.666,458.667L74.666,202.667C74.667,196.776 79.442,192 85.333,192Z" style="fill:rgb(207,216,220);fill-rule:nonzero;"/>
            <path d="M128,277.333L234.667,277.333C240.558,277.333 245.334,282.109 245.334,288L245.334,394.667C245.334,400.558 240.558,405.334 234.667,405.334L128,405.334C122.109,405.334 117.333,400.558 117.333,394.667L117.333,288C117.333,282.109 122.109,277.333 128,277.333Z" style="fill:rgb(100,181,246);fill-rule:nonzero;"/>
            <path d="M277.333,277.333L384,277.333C389.891,277.333 394.667,282.109 394.667,288L394.667,458.667C394.667,464.558 389.891,469.334 384,469.334L277.333,469.334C271.442,469.334 266.666,464.558 266.666,458.667L266.666,288C266.667,282.109 271.442,277.333 277.333,277.333Z" style="fill:rgb(96,125,139);fill-rule:nonzero;"/>
            <g>
                <path d="M448,448L64,448C34.545,448 10.667,471.878 10.667,501.333C10.667,507.224 15.443,512 21.334,512L490.667,512C496.558,512 501.334,507.224 501.334,501.333C501.333,471.878 477.455,448 448,448Z" style="fill:rgb(69,90,100);fill-rule:nonzero;"/>
                <path d="M362.667,0L149.333,0C119.878,0 96,23.878 96,53.333L96,96C96,101.891 100.776,106.667 106.667,106.667L405.334,106.667C411.225,106.667 416.001,101.891 416.001,96L416.001,53.333C416,23.878 392.122,0 362.667,0Z" style="fill:rgb(69,90,100);fill-rule:nonzero;"/>
            </g>
            <path d="M157.589,89.237C155.561,86.764 152.531,85.331 149.333,85.333L106.666,85.333C102.916,85.332 99.441,87.3 97.514,90.517L33.514,197.184C32.522,198.841 31.999,200.736 31.999,202.667C32,232.122 55.878,256 85.333,256C114.031,256.255 137.652,233.488 138.453,204.8L159.786,98.133C160.43,94.988 159.623,91.721 157.589,89.237Z" style="fill:rgb(33,150,243);fill-rule:nonzero;"/>
            <path d="M213.333,85.333L149.333,85.333C144.263,85.332 139.894,88.899 138.88,93.866L117.333,202.666C117.333,232.121 141.211,255.999 170.666,255.999C200.121,255.999 224,232.122 224,202.667L224,96C224,90.109 219.224,85.333 213.333,85.333Z" style="fill:rgb(100,181,246);fill-rule:nonzero;"/>
            <path d="M478.485,197.184L414.485,90.517C412.558,87.3 409.083,85.332 405.333,85.333L362.666,85.333C356.775,85.332 351.998,90.106 351.997,95.997C351.997,96.714 352.069,97.43 352.212,98.133L373.332,202.666C373.332,232.121 397.21,255.999 426.665,255.999C456.12,255.999 480,232.122 480,202.667C480.001,200.736 479.477,198.841 478.485,197.184Z" style="fill:rgb(33,150,243);fill-rule:nonzero;"/>
            <path d="M373.12,93.867C372.106,88.9 367.736,85.333 362.667,85.334L298.667,85.334C292.776,85.333 288,90.109 288,96L288,202.667C286.823,232.099 309.728,256.912 339.16,258.089C368.592,259.266 393.405,236.361 394.582,206.929C394.667,204.797 394.624,202.661 394.454,200.534L373.12,93.867Z" style="fill:rgb(100,181,246);fill-rule:nonzero;"/>
            <path d="M298.667,85.333L213.334,85.333C207.443,85.333 202.667,90.109 202.667,96L202.667,202.667C202.667,232.122 226.545,256 256,256C285.455,256 309.333,232.122 309.333,202.667L309.333,96C309.333,90.109 304.558,85.333 298.667,85.333Z" style="fill:rgb(33,150,243);fill-rule:nonzero;"/>
        </g>
    </g>
</svg>
