<?xml version="1.0"?>
<svg xmlns="http://www.w3.org/2000/svg" xmlns:xlink="http://www.w3.org/1999/xlink" version="1.1" id="Layer_1" x="0px" y="0px" viewBox="0 0 512.002 512.002" style="enable-background:new 0 0 512.002 512.002;" xml:space="preserve" width="512px" height="512px" class=""><g><path style="fill:#4D4D4D" d="M191.439,432.068c-5.585,0-10.308-4.317-10.731-9.986l-25.607-342.99  c-0.443-5.941,4.007-11.119,9.941-11.563c5.918-0.431,11.102,4.012,11.545,9.955l25.606,342.99  c0.444,5.941-4.006,11.119-9.94,11.563C191.981,432.058,191.708,432.068,191.439,432.068z" data-original="#AF8B64" class="" data-old_color="#AF8B64"/><ellipse style="fill:#4D4D4D" cx="361.381" cy="363.34" rx="63.05" ry="63.01" data-original="#57C17B" class="" data-old_color="#57C17B"/><path style="fill:#4D4D4D" d="M382.961,378.223c-19.775,28.644-45.469,45.202-57.389,36.982s-5.552-38.104,14.223-66.749  s45.469-45.202,57.389-36.982S402.736,349.579,382.961,378.223z" data-original="#7AC9E5" class="" data-old_color="#7AC9E5"/><path style="fill:#4D4D4D" d="M330.475,212.999c1.447,19.385-75.411,25.129-76.858,5.745c1.447,19.385-75.411,25.129-76.858,5.745  c1.447,19.385-75.411,25.129-76.858,5.745c1.447,19.385-75.411,25.129-76.858,5.745c-5.789-77.544,59.227-133.64,144.123-139.985  C252.063,89.648,324.686,135.455,330.475,212.999z" data-original="#F24E5E" class="" data-old_color="#F24E5E"/><path style="fill:#4D4D4D" d="M167.166,95.993l9.593,128.496c1.447,19.381-75.408,25.126-76.855,5.745  c-5.744-76.937,24.337-130.23,66.268-134.159C166.506,96.042,166.832,96.018,167.166,95.993z" data-original="#FF9C4A" class="" data-old_color="#FF9C4A"/><path style="fill:#4D4D4D" d="M253.614,218.744c1.447,19.381-75.408,25.126-76.855,5.745l-9.593-128.496  c0.334-0.025,0.66-0.049,0.995-0.067C210.21,93.577,247.87,141.808,253.614,218.744z" data-original="#FFD066" class="" data-old_color="#FFD066"/><path style="fill:#4D4D4D" d="M469.361,398.971c-21.338,0-21.338,21.314-42.676,21.314c-21.339,0-21.339-21.314-42.678-21.314  c-21.339,0-21.339,21.314-42.679,21.314c-21.339,0-21.339-21.314-42.677-21.314c-21.336,0-21.336,21.314-42.673,21.314  c-21.339,0-21.339-21.314-42.678-21.314s-21.339,21.314-42.678,21.314c-21.34,0-21.34-21.314-42.68-21.314  c-21.339,0-21.339,21.314-42.679,21.314c-21.342,0-21.342-21.314-42.685-21.314c-17.969,0-35.939,15.109-41.17,19.885  c-1.002,0.915-1.549,2.248-1.377,3.594c1.579,12.36,16.55,22.051,34.785,22.051h442.296c18.235,0,33.206-9.691,34.785-22.051  c0.172-1.345-0.375-2.678-1.377-3.593C505.291,414.08,487.326,398.971,469.361,398.971z" data-original="#E8BF89" class="" data-old_color="#E8BF89"/><g>
	<path style="fill:#4D4D4D" d="M320.8,420.285c4.132,0,7.459-0.805,10.301-2.094c-11.833-5.367-15.171-19.218-32.377-19.218   c-4.132,0-7.458,0.805-10.3,2.095C300.256,406.434,303.594,420.285,320.8,420.285z" data-original="#CCA576" class="active-path" data-old_color="#CCA576"/>
	<path style="fill:#4D4D4D" d="M406.156,420.285c4.132,0,7.458-0.805,10.3-2.094c-11.833-5.367-15.171-19.218-32.377-19.218   c-4.132,0-7.459,0.805-10.3,2.094C385.612,406.433,388.95,420.285,406.156,420.285z" data-original="#CCA576" class="active-path" data-old_color="#CCA576"/>
	<path style="fill:#4D4D4D" d="M235.45,420.285c4.132,0,7.458-0.805,10.3-2.094c-11.832-5.367-15.17-19.218-32.377-19.218   c-4.132,0-7.458,0.805-10.3,2.094C214.906,406.433,218.244,420.285,235.45,420.285z" data-original="#CCA576" class="active-path" data-old_color="#CCA576"/>
	<path style="fill:#4D4D4D" d="M64.735,420.285c4.132,0,7.458-0.805,10.3-2.094c-11.836-5.367-15.174-19.219-32.384-19.219   c-3.746,0-7.491,0.663-11.122,1.746C44.039,405.801,47.135,420.285,64.735,420.285z" data-original="#CCA576" class="active-path" data-old_color="#CCA576"/>
	<path style="fill:#4D4D4D" d="M150.094,420.285c4.132,0,7.458-0.805,10.3-2.094c-11.834-5.367-15.172-19.219-32.38-19.219   c-4.132,0-7.458,0.805-10.3,2.094C129.548,406.433,132.886,420.285,150.094,420.285z" data-original="#CCA576" class="active-path" data-old_color="#CCA576"/>
	<path style="fill:#4D4D4D" d="M510.593,418.856c-5.23-4.776-23.195-19.884-41.16-19.884c-3.742,0-6.819,0.665-9.479,1.747   c13.781,4.111,25.899,14.357,30.038,18.137c1.002,0.915,1.549,2.248,1.377,3.593c-1.579,12.359-16.55,22.05-34.785,22.05h20.601   c18.235,0,33.206-9.691,34.785-22.05C512.142,421.104,511.594,419.771,510.593,418.856z" data-original="#CCA576" class="active-path" data-old_color="#CCA576"/>
</g></g> </svg>
